<svg width="968" height="178" fill="none" xmlns="http://www.w3.org/2000/svg"><g opacity=".141" fill="#fff"><mask id="a"><path fill-rule="evenodd" clip-rule="evenodd" d="M651.584 170.519c-10.742-4.969-18.962-12.101-24.657-21.391-5.699-9.29-8.545-20.207-8.545-32.759 0-5.214.649-11.245 1.953-18.09l19.042-94.856h48.338l-18.798 94.12c-.976 4.89-1.464 9.375-1.464 13.448 0 17.93 9.436 26.891 28.319 26.891 10.253 0 18.348-3.136 24.291-9.412 5.939-6.272 10.375-16.582 13.305-30.926l18.798-94.121h47.606l-19.287 97.055c-10.417 51.668-40.609 77.498-90.573 77.498-14.811 0-27.587-2.487-38.328-7.457zm-204.215-2.078c-12.779-6.356-22.624-15.237-29.539-26.647-6.921-11.407-10.377-24.448-10.377-39.116 0-19.558 4.518-37.16 13.55-52.805 9.033-15.647 21.644-27.87 37.84-36.672C475.036 4.4 493.468 0 514.139 0c17.25 0 32.264 3.178 45.043 9.535 12.774 6.356 22.619 15.241 29.54 26.647 6.915 11.41 10.376 24.446 10.376 39.116 0 19.558-4.518 37.159-13.55 52.805-9.033 15.647-21.648 27.87-37.84 36.672-16.198 8.8-34.629 13.201-55.296 13.201-17.253 0-32.268-3.179-45.043-9.535zm34.301-120.28c-8.14 5.378-14.404 12.59-18.798 21.636-4.395 9.046-6.592 19.03-6.592 29.947 0 11.574 3.54 20.823 10.62 27.748 7.08 6.929 16.967 10.39 29.662 10.39 10.742 0 20.178-2.689 28.319-8.067 8.137-5.378 14.404-12.591 18.798-21.636 4.395-9.046 6.592-19.027 6.592-29.947 0-11.572-3.54-20.82-10.62-27.748-7.08-6.926-16.967-10.39-29.661-10.39-10.743 0-20.184 2.688-28.32 8.067zM832 174.553l26.61-132.748h-52.489l7.812-38.382h153.071l-7.812 38.382h-52.244l-26.611 132.748H832zm-619.606 0l34.177-171.13h86.424c19.202 0 33.892 3.464 44.065 10.39 10.169 6.928 15.258 16.83 15.258 29.703 0 9.943-2.685 18.542-8.056 25.792-5.371 7.253-12.859 12.919-22.46 16.99 7.324 3.263 12.977 7.785 16.967 13.569 3.987 5.787 5.981 12.59 5.981 20.414 0 17.765-7.243 31.253-21.727 40.46-14.488 9.21-33.367 13.812-56.639 13.812h-93.99zm54.685-34.959h41.99c8.626 0 15.381-1.712 20.264-5.135 4.882-3.422 7.324-8.472 7.324-15.157 0-4.889-1.793-8.515-5.371-10.878-3.583-2.362-8.465-3.545-14.649-3.545h-42.723l-6.835 34.715zm13.671-68.208h34.667c8.624 0 15.174-1.67 19.652-5.012 4.475-3.338 6.714-8.19 6.714-14.546 0-8.961-6.755-13.447-20.262-13.447h-34.18l-6.591 33.005zM150.385 174.553l-6.836-33.249H70.798l-19.774 33.249H0L109.615 3.423h47.606l41.258 171.13h-48.094zm-58.347-68.942h44.187l-11.474-55.495-32.713 55.495z"/></mask><path d="M651.584 170.519l-.84 1.816.84-1.816zm-24.657-21.391l1.705-1.045-.001-.001-1.704 1.046zm-6.592-50.85l-1.961-.393-.002.01-.002.009 1.965.374zm19.042-94.855v-2h-1.638l-.323 1.606 1.961.394zm48.338 0l1.961.391.478-2.391h-2.439v2zm-18.798 94.12l-1.961-.39 1.961.39zm51.146 30.927l1.452 1.376v-.001l-1.452-1.375zm13.305-30.926l1.959.4.002-.008-1.961-.392zm18.798-94.121v-2h-1.64l-.321 1.608 1.961.392zm47.606 0l1.961.39.475-2.39h-2.436v2zm-19.287 97.055l1.961.395.001-.005-1.962-.39zm-333.116 67.963l.891-1.79-.891 1.79zm-29.539-26.647l1.71-1.037-1.71 1.037zm3.173-91.921l-1.732-1 1.732 1zm37.84-36.672l.955 1.758-.955-1.758zm100.339-3.666l.891-1.791-.891 1.79zm29.54 26.647l1.71-1.037h-.001l-1.709 1.037zm-3.174 91.921l1.732 1-1.732-1zm-37.84 36.672l.954 1.757h.001l-.955-1.757zM481.67 48.161l1.103 1.668-1.103-1.668zm-14.77 79.331l1.399-1.429v-.001l-1.399 1.43zm57.981 2.323l1.102 1.669h.001l-1.103-1.669zm18.798-21.636l1.799.874-1.799-.874zm-4.028-57.695l1.399-1.43h-.001l-1.398 1.43zM832 174.553l-1.961-.393-.48 2.393H832v-2zm26.61-132.748l1.961.393.48-2.393h-2.441v2zm-52.489 0l-1.96-.399-.488 2.399h2.448v-2zm7.812-38.382v-2h-1.634l-.326 1.6 1.96.4zm153.071 0l1.96.399.488-2.4h-2.448v2zm-7.812 38.382v2h1.634l.326-1.601-1.96-.4zm-52.244 0v-2h-1.639l-.322 1.607 1.961.393zm-26.611 132.748v2h1.639l.322-1.607-1.961-.393zm-667.943 0l-1.962-.391-.477 2.391h2.439v-2zm34.177-171.13v-2h-1.64l-.321 1.608 1.961.392zm130.489 10.39l1.127-1.654h-.001l-1.126 1.653zm7.202 55.495l-1.607-1.19 1.607 1.19zm-22.46 16.99l-.781-1.84-4.236 1.795 4.203 1.872.814-1.827zm16.967 13.569l1.647-1.135-.001-.001-1.646 1.136zm-15.746 60.874l-1.073-1.688 1.073 1.688zm-95.944-21.147l-1.963-.387-.47 2.387h2.433v-2zm62.254-5.135l-1.148-1.638h-.001l1.149 1.638zm1.953-26.035l1.102-1.669-.002-.001-1.1 1.67zm-57.372-3.545v-2h-1.644l-.318 1.613 1.962.387zm6.836-33.493l-1.961-.391-.477 2.391h2.438v-2zm54.319-5.012l-1.196-1.603 1.196 1.603zm-47.728-27.993v-2h-1.64l-.321 1.609 1.961.391zM150.385 174.553l-1.959.403.328 1.597h1.631v-2zm-6.836-33.249l1.959-.402-.328-1.598h-1.631v2zm-72.751 0v-2H69.66l-.581.978 1.719 1.022zm-19.774 33.249v2h1.137l.582-.977-1.72-1.023zm-51.024 0l-1.684-1.079-1.972 3.079H0v-2zM109.615 3.423v-2h-1.094l-.591.921 1.685 1.079zm47.606 0l1.944-.469-.369-1.531h-1.575v2zm41.258 171.13v2h2.539l-.595-2.469-1.944.469zM92.038 105.611l-1.723-1.015-1.778 3.015h3.5v-2zm44.187 0v2h2.456l-.497-2.405-1.959.405zm-11.474-55.495l1.958-.404-1.049-5.076-2.632 4.465 1.723 1.016zm527.673 118.588c-10.416-4.819-18.321-11.697-23.792-20.621l-3.41 2.09c5.919 9.656 14.455 17.041 25.522 22.162l1.68-3.631zm-23.793-20.622c-5.478-8.929-8.249-19.472-8.249-31.713h-4c0 12.864 2.92 24.155 8.84 33.805l3.409-2.092zm-8.249-31.713c0-5.056.63-10.957 1.917-17.717l-3.929-.748c-1.32 6.931-1.988 13.092-1.988 18.465h4zm1.914-17.697l19.042-94.856-3.922-.787-19.042 94.856 3.922.787zm17.081-93.25h48.338v-4h-48.338v4zm46.377-2.391l-18.798 94.121 3.922.784 18.798-94.122-3.922-.783zm-18.798 94.121c-.997 4.992-1.503 9.61-1.503 13.839h4c0-3.916.469-8.268 1.425-13.056l-3.922-.783zm-1.503 13.839c0 9.3 2.452 16.635 7.701 21.62 5.23 4.965 12.894 7.271 22.618 7.271v-4c-9.158 0-15.654-2.175-19.864-6.172-4.189-3.979-6.455-10.089-6.455-18.719h-4zm30.319 28.891c10.691 0 19.352-3.288 25.743-10.036l-2.904-2.751c-5.496 5.803-13.025 8.787-22.839 8.787v4zm25.743-10.037c6.318-6.672 10.854-17.416 13.812-31.901l-3.919-.8c-2.9 14.203-7.237 24.079-12.797 29.951l2.904 2.75zm13.814-31.91l18.798-94.12-3.922-.784-18.798 94.121 3.922.784zm16.837-92.512h47.606v-4h-47.606v4zm45.644-2.39l-19.286 97.055 3.923.78 19.286-97.055-3.923-.78zm-19.285 97.049c-5.149 25.539-15.137 44.458-29.797 57.001-14.647 12.532-34.184 18.893-58.816 18.893v4c25.332 0 45.873-6.555 61.417-19.854 15.531-13.289 25.849-33.12 31.117-59.249l-3.921-.791zm-88.613 75.894c-14.592 0-27.067-2.45-37.488-7.272l-1.68 3.631c11.062 5.118 24.138 7.641 39.168 7.641v-4zm-241.652-9.325c-12.465-6.201-22.015-14.83-28.72-25.894l-3.421 2.074c7.126 11.757 17.266 20.888 30.36 27.401l1.781-3.581zm-28.72-25.894c-6.712-11.063-10.087-23.738-10.087-38.079h-4c0 14.996 3.538 28.403 10.667 40.153l3.42-2.074zm-10.087-38.079c0-19.236 4.44-36.489 13.282-51.805l-3.464-2c-9.222 15.974-13.818 33.926-13.818 53.805h4zm13.282-51.805c8.845-15.321 21.184-27.286 37.063-35.914l-1.91-3.515c-16.513 8.973-29.396 21.456-38.617 37.429l3.464 2zm37.063-35.915C475.664 6.335 493.761 2 514.139 2v-4c-20.963 0-39.73 4.465-56.251 13.444l1.91 3.514zM514.139 2c17.004 0 31.701 3.132 44.152 9.325l1.782-3.581C546.965 1.224 531.634-2 514.139-2v4zm44.152 9.325c12.46 6.2 22.01 14.834 28.721 25.894l3.419-2.075c-7.129-11.751-17.269-20.887-30.358-27.4l-1.782 3.581zm28.72 25.894c6.708 11.066 10.087 23.738 10.087 38.079h4c0-14.998-3.543-28.4-10.666-40.153l-3.421 2.073zm10.087 38.079c0 19.236-4.439 36.488-13.282 51.805l3.464 2c9.222-15.975 13.818-33.926 13.818-53.805h-4zm-13.282 51.805c-8.845 15.321-21.188 27.285-37.063 35.914l1.91 3.515c16.509-8.974 29.396-21.456 38.617-37.429l-3.464-2zm-37.063 35.914c-15.87 8.623-33.966 12.959-54.341 12.959v4c20.96 0 39.726-4.466 56.25-13.444l-1.909-3.515zm-54.341 12.959c-17.008 0-31.706-3.133-44.152-9.325l-1.782 3.581c13.104 6.519 28.435 9.744 45.934 9.744v-4zM480.568 46.492c-8.45 5.583-14.949 13.073-19.495 22.43l3.598 1.749c4.243-8.734 10.27-15.667 18.102-20.842l-2.205-3.337zm-19.495 22.43c-4.538 9.342-6.793 19.629-6.793 30.822h4c0-10.64 2.14-20.323 6.391-29.073l-3.598-1.748zm-6.793 30.822c0 12.014 3.692 21.813 11.222 29.178l2.797-2.86c-6.631-6.485-10.019-15.184-10.019-26.318h-4zm11.221 29.177c7.551 7.391 17.997 10.961 31.061 10.961v-4c-12.326 0-21.655-3.351-28.263-9.819l-2.798 2.858zm31.061 10.961c11.093 0 20.921-2.783 29.421-8.398l-2.204-3.338c-7.781 5.14-16.826 7.736-27.217 7.736v4zm29.422-8.398c8.445-5.583 14.948-13.074 19.494-22.431l-3.598-1.748c-4.243 8.733-10.274 15.667-18.102 20.842l2.206 3.337zm19.494-22.431c4.538-9.341 6.793-19.624 6.793-30.821h-4c0 10.644-2.139 20.322-6.391 29.073l3.598 1.748zm6.793-30.821c0-12.012-3.692-21.81-11.221-29.178l-2.798 2.859c6.631 6.49 10.019 15.187 10.019 26.319h4zm-11.222-29.178c-7.55-7.386-17.996-10.96-31.059-10.96v4c12.325 0 21.654 3.354 28.262 9.82l2.797-2.86zm-31.059-10.96c-11.094 0-20.927 2.782-29.423 8.398l2.206 3.337c7.776-5.14 16.825-7.736 27.217-7.736v-4zm323.971 136.852l26.61-132.748-3.922-.786-26.61 132.748 3.922.786zM858.61 39.805h-52.489v4h52.489v-4zm-50.529 2.399l7.812-38.382-3.92-.798-7.812 38.382 3.92.798zm5.852-36.781h153.071v-4H813.933v4zm151.111-2.4l-7.812 38.383 3.92.798 7.812-38.382-3.92-.798zm-5.852 36.782h-52.244v4h52.244v-4zm-54.205 1.607L878.376 174.16l3.922.786 26.611-132.748-3.922-.786zm-24.65 131.141H832v4h48.337v-4zm-665.982 2.392l34.178-171.13-3.923-.784-34.178 171.131 3.923.783zM246.571 5.423h86.424v-4h-86.424v4zm86.424 0c19.009 0 33.236 3.437 42.94 10.043l2.251-3.307C367.542 4.913 352.39 1.423 332.995 1.423v4zm42.939 10.042c9.594 6.537 14.384 15.803 14.384 28.05h4c0-13.498-5.387-24.034-16.131-31.355l-2.253 3.305zm14.384 28.05c0 9.562-2.574 17.732-7.663 24.603l3.214 2.38c5.652-7.63 8.449-16.656 8.449-26.982h-4zm-7.663 24.603c-5.128 6.924-12.31 12.385-21.634 16.34l1.562 3.682c9.878-4.19 17.672-10.06 23.286-17.642l-3.214-2.38zm-21.667 20.007c7.036 3.135 12.381 7.437 16.134 12.877l3.293-2.271c-4.226-6.126-10.188-10.869-17.799-14.26l-1.628 3.654zm16.134 12.876c3.731 5.417 5.628 11.814 5.628 19.28h4c0-8.182-2.092-15.391-6.334-21.549l-3.294 2.269zm5.628 19.28c0 17.109-6.918 29.947-20.8 38.772l2.146 3.376c15.085-9.59 22.654-23.728 22.654-42.148h-4zm-20.8 38.772c-14.072 8.945-32.542 13.5-55.566 13.5v4c23.521 0 42.808-4.65 57.712-14.124l-2.146-3.376zm-55.566 13.5h-93.99v4h93.99v-4zm-39.305-30.959h41.99v-4h-41.99v4zm41.99 0c8.861 0 16.073-1.755 21.412-5.497l-2.297-3.276c-4.426 3.103-10.725 4.773-19.115 4.773v4zm21.411-5.497c5.488-3.846 8.177-9.549 8.177-16.795h-4c0 6.125-2.195 10.521-6.472 13.519l2.295 3.276zm8.177-16.795c0-5.452-2.045-9.757-6.269-12.547l-2.205 3.338c2.933 1.937 4.474 4.883 4.474 9.209h4zm-6.271-12.548c-4.022-2.652-9.337-3.875-15.749-3.875v4c5.956 0 10.406 1.144 13.548 3.215l2.201-3.34zm-15.749-3.875h-42.723v4h42.723v-4zm-44.685 1.613l-6.836 34.715 3.925.773 6.835-34.715-3.924-.773zm8.798-31.106h34.667v-4H280.75v4zm34.667 0c8.835 0 15.882-1.702 20.848-5.41l-2.392-3.205c-3.991 2.979-10.042 4.615-18.456 4.615v4zm20.848-5.409c5.056-3.772 7.518-9.262 7.518-16.149h-4c0 5.825-2.016 10.038-5.91 12.943l2.392 3.206zm7.518-16.149c0-5.067-1.958-9.094-5.96-11.75-3.858-2.56-9.391-3.697-16.302-3.697v4c6.595 0 11.193 1.107 14.09 3.03 2.753 1.827 4.172 4.523 4.172 8.417h4zm-22.262-15.447h-34.18v4h34.18v-4zM285.38 37.99l-6.591 33.005 3.923.783 6.59-33.005-3.922-.783zM152.344 174.15l-6.836-33.248-3.918.805 6.836 33.249 3.918-.806zm-8.795-34.846H70.798v4h72.751v-4zm-74.47.978l-19.774 33.249 3.438 2.045 19.774-33.249-3.438-2.045zm-18.055 32.271H0v4h51.024v-4zm-49.34 3.079L111.3 4.502l-3.369-2.158-109.614 171.13 3.368 2.158zM109.615 5.422h47.606v-4h-47.606v4zm45.662-1.53l41.258 171.13 3.888-.938-41.258-171.13-3.888.937zm43.202 168.661h-48.094v4h48.094v-4zM92.038 107.611h44.187v-4H92.038v4zm46.146-2.405l-11.475-55.495-3.917.81 11.474 55.495 3.918-.81zm-15.156-56.105l-32.713 55.495 3.445 2.031 32.714-55.495-3.446-2.031z" mask="url(#a)"/></g></svg>