<svg width="78" height="59" fill="none" xmlns="http://www.w3.org/2000/svg"><path fill-rule="evenodd" clip-rule="evenodd" d="M47.804 4.983c-4.03-1.37-8.927-.996-8.927-.996v47.84c15.312-.063 18.846-3.987 18.846-3.987l1.984.996c-.992 2.679-6.944 3.987-6.944 3.987l4.96 5.98c14.258-2.492 19.838-9.966 19.838-9.966s.434-9.967 0-13.954c-1.287-11.818-8.927-26.723-11.903-29.9C62.682 1.806 49.788 0 49.788 0l-1.984 4.983zm-17.854 0c4.03-1.37 8.927-.996 8.927-.996v47.84C23.564 51.764 20.03 47.84 20.03 47.84l-1.984.996c.992 2.679 6.943 3.987 6.943 3.987l-4.96 5.98C5.773 56.312.194 48.837.194 48.837s-.434-9.967 0-13.954C1.479 23.065 9.12 8.16 12.096 4.983 15.07 1.806 27.966 0 27.966 0l1.984 4.983zm2.546 26.74c0 4.7-3.117 8.51-6.963 8.51s-6.964-3.81-6.964-8.51c0-4.7 3.118-8.511 6.964-8.511 3.846 0 6.963 3.81 6.963 8.51zm17.796 8.51c3.846 0 6.964-3.81 6.964-8.51 0-4.7-3.118-8.511-6.964-8.511-3.846 0-6.963 3.81-6.963 8.51 0 4.701 3.117 8.512 6.963 8.512z" fill="#fff" opacity=".678"/></svg>