<svg width="1211" height="179" fill="none" xmlns="http://www.w3.org/2000/svg"><g opacity=".141" fill="#fff"><mask id="a"><path fill-rule="evenodd" clip-rule="evenodd" d="M909.167 169.576c-13.017-6.273-23.021-15.117-30.014-26.529-6.995-11.408-10.492-24.532-10.492-39.367 0-19.561 4.515-37.166 13.543-52.816 9.028-15.649 21.674-27.874 37.943-36.677C936.411 5.385 954.956.984 975.78.984c15.776 0 29.77 2.811 41.97 8.435 12.2 5.625 21.31 13.57 27.33 23.84l-34.9 27.876c-8.29-13.365-20.82-20.05-37.572-20.05-10.9 0-20.497 2.567-28.793 7.701-8.296 5.135-14.762 12.226-19.398 21.274-4.637 9.046-6.954 19.194-6.954 30.441 0 11.577 3.739 20.868 11.224 27.875 7.48 7.011 17.648 10.514 30.501 10.514 16.264 0 30.172-6.602 41.722-19.806l28.55 28.12c-9.27 11.247-20.09 19.359-32.452 24.329-12.364 4.971-26.516 7.457-42.456 7.457-17.245 0-32.373-3.14-45.385-9.414zm-364.301-16.749l31.234-29.83c7.48 11.576 16.836 17.36 28.06 17.36 13.336 0 21.552-7.66 24.645-22.984l14.884-75.555h-59.05l7.565-37.412h106.875l-22.205 110.278c-4.556 22.984-12.772 39.45-24.645 49.391-11.876 9.945-28.145 14.915-48.801 14.915-27.328 0-46.849-8.718-58.562-26.163zm-138.715 16.627c-12.772-6.357-22.611-15.24-29.524-26.651-6.916-11.408-10.37-24.452-10.37-39.123 0-19.561 4.513-37.166 13.542-52.816 9.028-15.649 21.633-27.874 37.821-36.677C433.805 5.385 452.227.984 472.887.984c17.241 0 32.247 3.178 45.019 9.536 12.768 6.357 22.609 15.243 29.525 26.652 6.912 11.412 10.37 24.451 10.37 39.122 0 19.562-4.514 37.167-13.542 52.816-9.029 15.649-21.637 27.874-37.821 36.676-16.188 8.803-34.611 13.204-55.268 13.204-17.244 0-32.25-3.178-45.019-9.536zm34.283-120.301c-8.136 5.379-14.396 12.593-18.788 21.64-4.392 9.047-6.588 19.033-6.588 29.953 0 11.576 3.537 20.826 10.614 27.753 7.076 6.929 16.958 10.391 29.646 10.391 10.737 0 20.169-2.689 28.305-8.068 8.133-5.381 14.397-12.593 18.789-21.64 4.392-9.048 6.588-19.03 6.588-29.953 0-11.573-3.538-20.822-10.614-27.753-7.077-6.927-16.959-10.392-29.647-10.392-10.736 0-20.173 2.69-28.305 8.069zm635.626 126.415l26.6-132.772h-52.46l7.81-38.39H1211l-7.81 38.39h-52.22l-26.59 132.772h-48.32zm-378.447 0l34.16-171.162h133.716l-7.565 37.412H771.79l-5.612 28.853h75.885l-7.075 36.187h-76.13l-6.101 31.298h89.55l-7.807 37.412H697.613zm-412.119 0l-25.378-45.48h-24.4l-9.028 45.48h-48.313L212.536 4.406h72.958c21.796 0 38.712 4.811 50.752 14.428 12.037 9.62 18.057 22.984 18.057 40.1 0 15.648-4.148 29.14-12.444 40.468-8.296 11.33-19.929 19.602-34.893 24.817l29.036 51.349h-50.508zm-42.458-82.891h28.793c10.736 0 19.032-2.526 24.889-7.58 5.856-5.05 8.783-12.226 8.783-21.517 0-7.008-2.359-12.265-7.075-15.772-4.721-3.503-11.309-5.257-19.765-5.257h-25.377l-10.248 50.126zM.982 175.568L35.142 4.406h72.226c22.121 0 39.202 4.811 51.241 14.428 12.037 9.62 18.057 23.147 18.057 40.589 0 14.346-3.458 26.897-10.37 37.655-6.917 10.758-16.757 19.073-29.526 24.941-12.771 5.868-27.614 8.803-44.53 8.803H58.08l-8.784 44.746H.982zm64.661-82.891h28.793c10.736 0 18.99-2.526 24.766-7.58 5.773-5.05 8.663-12.226 8.663-21.517 0-7.008-2.318-12.265-6.954-15.772-4.636-3.503-11.267-5.257-19.887-5.257H75.647L65.643 92.677z"/></mask><path d="M909.167 169.576l.868-1.801-.868 1.801zm-30.014-26.529l1.706-1.045h-.001l-1.705 1.045zm3.051-92.183l-1.733-.999 1.733 1zm37.943-36.677l.952 1.759-.952-1.76zm97.603-4.768l.84-1.816-.84 1.816zm27.33 23.84l1.25 1.563 1.35-1.08-.88-1.494-1.72 1.012zm-34.9 27.876l-1.69 1.054 1.18 1.914 1.76-1.406-1.25-1.563zm-66.365-12.349l-1.053-1.7 1.053 1.7zM924.417 70.06l1.78.912-1.78-.912zm4.27 58.316l1.368-1.459-.001-.001-1.367 1.46zm72.223-9.292l1.41-1.424-1.52-1.489-1.393 1.597 1.503 1.316zm28.55 28.12l1.54 1.272 1.17-1.412-1.31-1.285-1.4 1.425zm-32.452 24.329l.746 1.856-.746-1.856zm-452.142-18.706l-1.381-1.446-1.218 1.163.939 1.398 1.66-1.115zm31.234-29.83l1.68-1.086-1.312-2.031-1.749 1.67 1.381 1.447zm52.705-5.624l1.96.395.002-.009-1.962-.386zm14.884-75.555l1.962.386.471-2.386h-2.433v2zm-59.05 0l-1.96-.397-.485 2.397h2.445v-2zm7.565-37.412v-2h-1.636l-.325 1.604 1.961.396zm106.875 0l1.96.395.482-2.395h-2.442v2zm-22.205 110.278l-1.961-.395-.001.006 1.962.389zm-24.645 49.391l1.284 1.534-1.284-1.534zm-246.078 5.379l.892-1.79-.001-.001-.891 1.791zm-29.524-26.651l1.71-1.036v-.001l-1.71 1.037zm3.172-91.939l1.733 1-1.733-1zm37.821-36.677l.955 1.757-.955-1.757zm100.286-3.667l-.891 1.79.891-1.79zm29.525 26.652l1.71-1.036-1.71 1.036zm-3.172 91.938l1.732.999-1.732-.999zm-37.821 36.676l.956 1.757-.956-1.757zM440.434 49.153l1.103 1.668-1.103-1.668zm-18.788 21.64l-1.799-.874h-.001l1.8.873zm4.026 57.706l1.4-1.429-.001-.001-1.399 1.43zm57.951 2.323l1.103 1.668h.001l-1.104-1.668zm18.789-21.64l1.799.873-1.799-.873zm-4.026-57.706l1.399-1.43-1.399 1.43zm577.674 124.092l-1.96-.393-.48 2.393h2.44v-2zm26.6-132.772l1.96.393.48-2.393h-2.44v2zm-52.46 0l-1.96-.399-.49 2.399h2.45v-2zm7.81-38.39v-2h-1.64l-.32 1.602 1.96.398zm152.99 0l1.96.4.49-2.4H1211v2zm-7.81 38.39v2h1.64l.32-1.602-1.96-.398zm-52.22 0v-2h-1.64l-.32 1.607 1.96.393zm-26.59 132.772v2h1.64l.32-1.608-1.96-.392zm-426.767 0l-1.962-.392-.477 2.392h2.439v-2zm34.16-171.162v-2h-1.64l-.321 1.609 1.961.391zm133.716 0l1.96.397.485-2.397h-2.445v2zm-7.565 37.412v2h1.636l.325-1.604-1.961-.396zm-86.134 0v-2h-1.649l-.314 1.618 1.963.382zm-5.612 28.853l-1.963-.382-.463 2.382h2.426v-2zm75.885 0l1.963.384.466-2.384h-2.429v2zm-7.075 36.187v2h1.647l.316-1.616-1.963-.384zm-76.13 0v-2h-1.648l-.315 1.617 1.963.383zm-6.101 31.298l-1.963-.382-.464 2.382h2.427v-2zm89.55 0l1.958.409.503-2.409h-2.461v2zm-7.807 37.412v2h1.626l.332-1.592-1.958-.408zm-549.006 0l-1.747.974.572 1.026h1.175v-2zm-25.378-45.48l1.747-.975-.572-1.025h-1.175v2zm-24.4 0v-2h-1.642l-.319 1.61 1.961.39zm-9.028 45.48v2h1.642l.32-1.611-1.962-.389zm-48.313 0l-1.962-.392-.477 2.392h2.439v-2zM212.536 4.406v-2h-1.64l-.321 1.609 1.961.391zm123.71 14.428l1.249-1.563-1.249 1.563zm5.613 80.568l-1.614-1.182 1.614 1.182zm-34.893 24.817l-.658-1.889-2.262.789 1.179 2.084 1.741-.984zm29.036 51.349v2h3.429l-1.688-2.985-1.741.985zm-92.966-82.891l-1.959-.4-.491 2.4h2.45v-2zm53.682-7.58l-1.307-1.515 1.307 1.515zm1.708-37.289l1.193-1.605-.002-.001-1.191 1.606zm-45.142-5.257v-2h-1.632l-.327 1.6 1.959.4zM.982 175.568l-1.961-.392-.478 2.392H.982v-2zM35.142 4.406v-2h-1.64l-.321 1.609 1.961.391zM158.61 18.834l1.249-1.563h-.001l-1.248 1.563zm7.687 78.244l1.682 1.081-1.682-1.081zm-29.526 24.941l.835 1.817h.001l-.836-1.817zm-78.691 8.803v-2h-1.646l-.317 1.614 1.963.386zm-8.784 44.746v2h1.645l.318-1.615-1.963-.385zm16.348-82.891l-1.96-.392-.478 2.392h2.438v-2zm53.559-7.58l-1.317-1.505 1.317 1.505zm1.709-37.289l1.206-1.595h-.001l-1.205 1.595zm-45.264-5.257v-2h-1.64l-.322 1.609 1.962.391zm834.388 125.224c-12.699-6.121-22.4-14.714-29.176-25.773l-3.411 2.09c7.21 11.765 17.516 20.86 30.85 27.286l1.737-3.603zm-29.177-25.773c-6.782-11.061-10.197-23.815-10.197-38.322h-4c0 15.162 3.578 28.656 10.787 40.413l3.41-2.091zm-10.197-38.322c0-19.24 4.437-36.496 13.275-51.816l-3.465-1.999c-9.218 15.978-13.81 33.933-13.81 53.815h4zm13.275-51.816c8.839-15.32 21.211-27.287 37.163-35.918l-1.904-3.518c-16.586 8.974-29.505 21.46-38.724 37.437l3.465 1.999zM921.1 15.946c15.936-8.626 34.146-12.962 54.68-12.962v-4c-21.114 0-39.993 4.465-56.585 13.444l1.904 3.518zm54.68-12.962c15.537 0 29.24 2.768 41.13 8.252l1.68-3.633c-12.51-5.764-26.795-8.62-42.81-8.62v4zm41.13 8.252c11.88 5.476 20.65 13.162 26.44 23.035l3.45-2.023c-6.25-10.667-15.69-18.872-28.21-24.645l-1.68 3.633zm26.92 20.46l-34.89 27.876 2.49 3.125 34.9-27.875-2.5-3.125zm-31.95 28.384c-8.69-13.997-21.882-20.996-39.272-20.996v4c16.114 0 27.972 6.373 35.882 19.105l3.39-2.11zm-39.272-20.996c-11.227 0-21.197 2.65-29.846 8.002l2.105 3.401c7.944-4.916 17.168-7.403 27.741-7.403v-4zm-29.846 8.002c-8.619 5.334-15.33 12.704-20.125 22.062l3.56 1.824c4.477-8.738 10.697-15.55 18.67-20.485l-2.105-3.401zm-20.125 22.061c-4.796 9.359-7.174 19.824-7.174 31.354h4c0-10.964 2.257-20.794 6.734-29.529l-3.56-1.825zm-7.174 31.354c0 12.051 3.914 21.899 11.857 29.335l2.734-2.92c-7.027-6.578-10.591-15.312-10.591-26.415h-4zm11.856 29.334c7.939 7.441 18.643 11.055 31.869 11.055v-4c-12.48 0-22.112-3.392-29.133-9.973l-2.736 2.918zm31.869 11.055c16.89 0 31.331-6.889 43.232-20.489l-3.013-2.633c-11.206 12.808-24.581 19.122-40.219 19.122v4zm40.321-20.381l28.551 28.12 2.8-2.85-28.54-28.119-2.811 2.849zm28.411 25.423c-9.08 11.014-19.64 18.912-31.658 23.745l1.492 3.712c12.696-5.106 23.786-13.432 33.246-24.913l-3.08-2.544zm-31.658 23.745c-12.085 4.859-25.977 7.313-41.71 7.313v4c16.146 0 30.56-2.519 43.202-7.601l-1.492-3.712zm-41.71 7.313c-17.002 0-31.823-3.095-44.517-9.215l-1.737 3.603c13.33 6.427 28.765 9.612 46.254 9.612v-4zm-408.304-22.716l31.233-29.831-2.762-2.893-31.234 29.831 2.763 2.893zm28.172-30.192c7.753 11.998 17.678 18.275 29.74 18.275v-4c-10.385 0-19.173-5.292-26.38-16.446l-3.36 2.171zm29.74 18.275c7.074 0 12.982-2.044 17.528-6.283 4.512-4.207 7.48-10.39 9.077-18.306l-3.921-.791c-1.495 7.409-4.18 12.718-7.884 16.172-3.67 3.422-8.537 5.208-14.8 5.208v4zm26.607-24.598l14.884-75.555-3.924-.773-14.884 75.555 3.924.773zm12.922-77.941h-59.05v4h59.05v-4zm-57.09 2.396l7.565-37.411-3.921-.793-7.564 37.411 3.92.793zm5.605-35.808h106.875v-4H592.204v4zm104.914-2.394l-22.205 110.277 3.922.789L701.039 4.801l-3.921-.79zm-22.206 110.283c-4.511 22.756-12.584 38.716-23.967 48.247l2.568 3.067c12.363-10.352 20.722-27.324 25.323-50.537l-3.924-.777zm-23.967 48.247c-11.411 9.555-27.172 14.448-47.517 14.448v4c20.968 0 37.744-5.048 50.085-15.381l-2.568-3.067zm-47.517 14.448c-26.886 0-45.67-8.549-56.901-25.277l-3.321 2.229c12.194 18.161 32.452 27.048 60.222 27.048v-4zm-196.386-9.327c-12.457-6.2-22.002-14.832-28.705-25.896l-3.421 2.073c7.123 11.757 17.257 20.891 30.344 27.404l1.782-3.581zm-28.705-25.897c-6.707-11.064-10.08-23.742-10.08-38.086h-4c0 14.999 3.535 28.408 10.659 40.16l3.421-2.074zm-10.08-38.086c0-19.24 4.436-36.496 13.275-51.816l-3.465-1.999c-9.219 15.978-13.81 33.933-13.81 53.815h4zm13.275-51.816c8.84-15.323 21.172-27.29 37.043-35.92l-1.911-3.514c-16.505 8.975-29.381 21.46-38.597 37.435l3.465 1.999zm37.043-35.92c15.858-8.624 33.944-12.96 54.312-12.96v-4c-20.953 0-39.711 4.466-56.223 13.446l1.911 3.514zm54.312-12.96c16.995 0 31.685 3.132 44.128 9.327l1.782-3.581c-13.1-6.522-28.424-9.746-45.91-9.746v4zm44.128 9.327c12.453 6.2 21.999 14.835 28.705 25.898l3.421-2.074c-7.125-11.754-17.261-20.892-30.344-27.405l-1.782 3.58zm28.705 25.897c6.704 11.07 10.081 23.743 10.081 38.086h4c0-15-3.54-28.403-10.66-40.158l-3.421 2.072zm10.081 38.086c0 19.24-4.436 36.497-13.274 51.816l3.464 1.999c9.218-15.977 13.81-33.933 13.81-53.815h-4zm-13.274 51.816c-8.841 15.323-21.178 27.29-37.044 35.919l1.911 3.514c16.5-8.974 29.38-21.459 38.597-37.434l-3.464-1.999zm-37.044 35.919c-15.861 8.625-33.949 12.961-54.313 12.961v4c20.95 0 39.708-4.466 56.224-13.447l-1.911-3.514zM451.17 176.99c-16.998 0-31.688-3.132-44.127-9.326l-1.783 3.58c13.097 6.523 28.421 9.746 45.91 9.746v-4zM439.331 47.484c-8.445 5.584-14.94 13.076-19.484 22.435l3.598 1.747c4.241-8.735 10.265-15.67 18.092-20.845l-2.206-3.337zM419.846 69.92c-4.535 9.343-6.788 19.631-6.788 30.827h4c0-10.643 2.138-20.328 6.387-29.08l-3.599-1.747zm-6.788 30.827c0 12.015 3.689 21.815 11.215 29.182l2.798-2.859c-6.627-6.486-10.013-15.186-10.013-26.323h-4zm11.215 29.181c7.547 7.392 17.988 10.963 31.045 10.963v-4c-12.319 0-21.642-3.352-28.246-9.82l-2.799 2.857zm31.045 10.963c11.088 0 20.912-2.783 29.408-8.4l-2.206-3.337c-7.776 5.141-16.816 7.737-27.202 7.737v4zm29.409-8.4c8.44-5.585 14.94-13.076 19.484-22.435l-3.599-1.747c-4.24 8.735-10.268 15.669-18.092 20.846l2.207 3.336zm19.484-22.435C508.746 100.713 511 90.429 511 79.23h-4c0 10.646-2.139 20.327-6.388 29.08l3.599 1.746zM511 79.229c0-12.013-3.69-21.812-11.215-29.182l-2.799 2.857C503.613 59.396 507 68.095 507 79.23h4zm-11.215-29.183c-7.547-7.387-17.988-10.962-31.046-10.962v4c12.319 0 21.642 3.355 28.248 9.82l2.798-2.858zm-31.046-10.962c-11.087 0-20.916 2.783-29.408 8.4l2.206 3.337c7.773-5.141 16.817-7.737 27.202-7.737v-4zM1078.03 175.96l26.59-132.771-3.92-.786-26.6 132.772 3.93.785zm24.63-135.164h-52.46v4h52.46v-4zm-50.5 2.398l7.81-38.389-3.92-.797-7.81 38.39 3.92.796zm5.85-36.788H1211v-4h-152.99v4zm151.03-2.398l-7.81 38.39 3.92.796 7.81-38.389-3.92-.797zm-5.85 36.788h-52.22v4h52.22v-4zm-54.18 1.607l-26.59 132.772 3.92.785 26.6-132.771-3.93-.786zm-24.63 131.165h-48.32v4h48.32v-4zm-424.806 2.391l34.16-171.161-3.922-.783-34.161 171.161 3.923.783zM731.773 6.406h133.716v-4H731.773v4zM863.528 4.01l-7.564 37.411 3.921.793 7.564-37.411-3.921-.793zm-5.604 35.808H771.79v4h86.134v-4zm-88.097 1.618l-5.612 28.853 3.926.764 5.612-28.854-3.926-.763zm-3.649 31.235h75.885v-4h-75.885v4zm73.923-2.384l-7.076 36.187 3.926.768 7.075-36.187-3.925-.768zm-5.113 34.571h-76.13v4h76.13v-4zm-78.093 1.617l-6.101 31.299 3.926.765 6.101-31.298-3.926-.766zm-4.138 33.681h89.55v-4h-89.55v4zm87.593-2.408l-7.808 37.411 3.916.817 7.807-37.411-3.915-.817zm-5.85 35.82H697.613v4H834.5v-4zm-547.26 1.025l-25.377-45.48-3.493 1.949 25.377 45.48 3.493-1.949zm-27.124-46.505h-24.4v4h24.4v-4zm-26.361 1.61l-9.028 45.48 3.923.779 9.028-45.48-3.923-.779zm-7.067 43.87h-48.313v4h48.313v-4zm-46.352 2.391L214.497 4.798l-3.922-.783-34.162 171.161 3.923.783zm32.2-169.553h72.958v-4h-72.958v4zm72.958 0c21.526 0 37.94 4.753 49.504 13.99l2.497-3.125c-12.516-9.996-29.936-14.865-52.001-14.865v4zm49.504 13.99c11.505 9.195 17.305 21.953 17.305 38.537h4c0-17.647-6.24-31.617-18.808-41.662l-2.497 3.125zm17.305 38.537c0 15.275-4.041 28.34-12.058 39.287l3.227 2.363c8.576-11.71 12.831-25.627 12.831-41.65h-4zM340.245 98.22c-8.026 10.963-19.305 19.011-33.937 24.11l1.316 3.778c15.296-5.331 27.283-13.826 35.848-25.525l-3.227-2.363zm-35.02 26.983l29.037 51.349 3.481-1.969-29.036-51.348-3.482 1.968zm30.777 48.365h-50.508v4h50.508v-4zm-92.966-78.891h28.793v-4h-28.793v4zm28.793 0c11.03 0 19.856-2.595 26.195-8.066l-2.613-3.028c-5.374 4.638-13.14 7.094-23.582 7.094v4zm26.195-8.066c6.386-5.507 9.477-13.287 9.477-23.031h-4c0 8.838-2.763 15.408-8.09 20.002l2.613 3.03zm9.477-23.031c0-7.503-2.558-13.417-7.882-17.377l-2.387 3.21c4.108 3.055 6.269 7.655 6.269 14.167h4zm-7.884-17.378c-5.186-3.849-12.252-5.65-20.956-5.65v4c8.208 0 14.319 1.705 18.573 4.862l2.383-3.212zm-20.956-5.65h-25.377v4h25.377v-4zm-27.336 1.599l-10.248 50.125 3.919.801 10.248-50.125-3.919-.801zM2.943 175.959L37.103 4.798l-3.922-.783-34.16 171.161 3.922.783zm32.2-169.553h72.225v-4H35.142v4zm72.225 0c21.859 0 38.433 4.757 49.993 13.99l2.496-3.125c-12.519-10-30.107-14.865-52.489-14.865v4zm49.992 13.99c11.496 9.187 17.306 22.103 17.306 39.027h4c0-17.959-6.231-32.1-18.808-42.152l-2.498 3.125zm17.306 39.027c0 14.01-3.373 26.177-10.053 36.573l3.365 2.163c7.144-11.119 10.688-24.055 10.688-38.736h-4zm-10.053 36.573c-6.69 10.407-16.221 18.481-28.678 24.205l1.671 3.635c13.079-6.011 23.229-14.566 30.372-25.677l-3.365-2.163zm-28.678 24.205c-12.462 5.727-27.01 8.621-43.695 8.621v4c17.146 0 32.284-2.975 45.365-8.986l-1.67-3.635zm-43.695 8.621H58.08v4h34.16v-4zm-36.124 1.614l-8.784 44.746 3.925.771 8.784-44.746-3.925-.771zm-6.821 43.132H.982v4h48.313v-4zm16.348-78.891h28.793v-4H65.643v4zm28.793 0c11.028 0 19.82-2.594 26.083-8.075l-2.634-3.01c-5.289 4.628-13.005 7.085-23.449 7.085v4zm26.083-8.075c6.298-5.51 9.346-13.287 9.346-23.022h-4c0 8.847-2.732 15.42-7.98 20.012l2.634 3.01zm9.346-23.022c0-7.49-2.507-13.402-7.748-17.367l-2.413 3.19c4.031 3.05 6.161 7.652 6.161 14.177h4zm-7.749-17.368c-5.115-3.864-12.237-5.66-21.092-5.66v4c8.386 0 14.524 1.711 18.681 4.852l2.411-3.192zm-21.092-5.66H75.647v4h25.377v-4zM73.686 42.16L63.682 92.285l3.923.783 10.003-50.125-3.922-.783z" mask="url(#a)"/></g></svg>