<svg width="510" height="172" fill="none" xmlns="http://www.w3.org/2000/svg"><g opacity=".141" fill="#fff"><mask id="a"><path fill-rule="evenodd" clip-rule="evenodd" d="M341.215 171.005L375.361 0h133.657l-7.56 37.376h-86.097l-5.61 28.827h75.853l-7.073 36.155h-76.097l-6.097 31.27h89.511l-7.805 37.377H341.215zm-82.682 0l13.171-66.448h-65.609l-13.171 66.448h-48.292L178.778 0h48.292l-12.683 64.004h65.609L292.679 0h48.292l-34.146 171.005h-48.292zm-232.68 0L52.438 38.353H0L7.805 0H160.73l-7.805 38.353h-52.194L74.146 171.005H25.853z"/></mask><path d="M341.215 171.005l-1.961-.392-.478 2.392h2.439v-2zM375.361 0v-2h-1.64L373.4-.392l1.961.392zm133.657 0l1.961.397.485-2.397h-2.446v2zm-7.56 37.376v2h1.635l.325-1.603-1.96-.397zm-86.097 0v-2h-1.649l-.314 1.618 1.963.382zm-5.61 28.827l-1.963-.382-.464 2.382h2.427v-2zm75.853 0l1.963.384.466-2.384h-2.429v2zm-7.073 36.155v2h1.647l.316-1.616-1.963-.384zm-76.097 0v-2h-1.648l-.315 1.617 1.963.383zm-6.097 31.27l-1.963-.383-.465 2.383h2.428v-2zm89.511 0l1.958.408.503-2.408h-2.461v2zm-7.805 37.377v2h1.626l.332-1.592-1.958-.408zm-219.51 0l-1.962-.389-.473 2.389h2.435v-2zm13.171-66.448l1.962.389.473-2.389h-2.435v2zm-65.609 0v-2h-1.643l-.319 1.612 1.962.388zm-13.171 66.448v2h1.642l.32-1.612-1.962-.388zm-48.292 0l-1.961-.392-.478 2.392h2.439v-2zM178.778 0v-2h-1.64l-.321 1.608 1.961.392zm48.292 0l1.962.389.473-2.389h-2.435v2zm-12.683 64.004l-1.962-.388-.473 2.388h2.435v-2zm65.609 0v2h1.643l.319-1.61-1.962-.39zM292.679 0v-2h-1.642l-.32 1.611 1.962.389zm48.292 0l1.962.392L343.41-2h-2.439v2zm-34.146 171.005v2h1.64l.322-1.609-1.962-.391zm-280.972 0l-1.96-.393-.48 2.393h2.44v-2zM52.438 38.353l1.962.393.48-2.393h-2.442v2zM0 38.353l-1.96-.398-.488 2.398H0v-2zM7.805 0v-2H6.17L5.845-.399 7.805 0zM160.73 0l1.96.399.488-2.399h-2.448v2zm-7.805 38.353v2h1.634l.326-1.6-1.96-.4zm-52.194 0v-2h-1.64l-.321 1.607 1.961.393zM74.146 171.005v2h1.639l.322-1.607-1.961-.393zm269.03.391L377.322.392 373.4-.392l-34.146 171.005 3.922.783zM375.361 2h133.657v-4H375.361v4zM507.058-.397l-7.561 37.377 3.921.793L510.979.397l-3.921-.794zm-5.6 35.773h-86.097v4h86.097v-4zm-88.06 1.618l-5.61 28.827 3.926.764 5.61-28.827-3.926-.764zm-3.647 31.209h75.853v-4h-75.853v4zm73.89-2.384l-7.073 36.155 3.926.768 7.073-36.155-3.926-.768zm-5.11 34.539h-76.097v4h76.097v-4zm-78.06 1.617l-6.097 31.27 3.926.765 6.097-31.269-3.926-.766zm-4.134 33.653h89.511v-4h-89.511v4zm87.553-2.409l-7.805 37.377 3.916.817 7.805-37.377-3.916-.817zm-5.847 35.786H341.215v4h136.828v-4zm-217.548 2.388l13.171-66.447-3.924-.777-13.171 66.447 3.924.777zm11.209-68.836h-65.609v4h65.609v-4zm-67.571 1.612l-13.171 66.447 3.924.777 13.17-66.447-3.923-.777zm-11.209 64.836h-48.292v4h48.292v-4zm-46.331 2.391L180.739.392l-3.922-.784-34.146 171.005 3.922.783zM178.778 2h48.292v-4h-48.292v4zm46.33-2.389l-12.683 64.005 3.924.777L229.032.39l-3.924-.778zm-10.721 66.393h65.609v-4h-65.609v4zm67.571-1.61L294.641.388l-3.924-.778-12.683 64.005 3.924.777zM292.679 2h48.292v-4h-48.292v4zM339.01-.392l-34.146 171.005 3.923.783L342.933.392l-3.923-.784zm-32.185 169.397h-48.292v4h48.292v-4zm-279.01 2.393L54.4 38.746l-3.922-.786-26.586 132.652 3.922.786zM52.437 36.353H0v4h52.438v-4zm-50.478 2.4L9.765.398 5.845-.4-1.96 37.955l3.92.797zM7.805 2H160.73v-4H7.805v4zM158.77-.399l-7.805 38.354 3.92.797L162.69.4l-3.92-.8zm-5.845 36.752h-52.194v4h52.194v-4zM98.77 37.96L72.185 170.612l3.922.786 26.585-132.652-3.922-.786zM74.146 169.005H25.853v4h48.293v-4z" mask="url(#a)"/></g></svg>