<svg width="74" height="61" fill="none" xmlns="http://www.w3.org/2000/svg"><path d="M5 3.075s10.466 14.918 31 16.067c0 0-2.304-17.598 14-19.08 5.373-.488 10.232 2.908 12 5.021 0 0 7.157-1.537 10-4.016 0 0-2.34 6.294-6 9.037 0 0 7.336-2.22 8-3.012 0 0-2.91 5.773-8 9.037 0 0 1.74 20.503-14 33.138-15.74 12.636-32.888 14.321-52 4.017 0 0 15.688.496 22-6.025 0 0-12.877-2.119-14-11.046 0 0 5.21 1.663 7 0 0 0-12.305-2.096-12-15.063 0 0 2.318 2.455 6 2.009 0 0-9.001-8.874-4-20.084z" fill="#fff" opacity=".678"/></svg>